<?xml version="1.0" standalone="no"?>
<!DOCTYPE svg PUBLIC "-//W3C//DTD SVG 1.1//EN" "http://www.w3.org/Graphics/SVG/1.1/DTD/svg11.dtd" >
<svg xmlns="http://www.w3.org/2000/svg">
<metadata></metadata>
<defs>
<font id="pixantiquamedium" horiz-adv-x="1194" >
<font-face units-per-em="2048" ascent="1706" descent="-342" />
<missing-glyph horiz-adv-x="512" />
<glyph unicode="fi" horiz-adv-x="1364" d="M0 1024v170h170v342h172v170h852v-340h-340v170h-342v-342h170v-170h-170v-1024h-342v1024h-170zM854 0v1024h170v170h170v-1194h-340z" />
<glyph unicode="ft" horiz-adv-x="1536" d="M0 1024v170h170v342h172v170h512v-170h-342v-342h342v172h170v170h170v-342h172v-170h-172v-1024h-340v1024h-342v-1024h-342v1024h-170z" />
<glyph unicode="st" horiz-adv-x="1876" d="M0 170v172h170v-172h512v172h-170v170h-342v170h-170v342h170v170h512v172h172v170h340v-170h-340v-342h-512v-170h170v-172h342v-170h170v-342h-170v-170h-684v170h-170zM1024 1024v170h170v172h172v170h170v-342h170v-170h-170v-1024h-342v1024h-170z" />
<glyph unicode="fl" horiz-adv-x="1364" d="M0 1024v170h170v342h172v170h512v-170h-342v-342h170v-170h-170v-1024h-342v1024h-170zM854 0v1536h170v170h170v-1706h-340z" />
<glyph horiz-adv-x="0" />
<glyph unicode="&#xd;" horiz-adv-x="682" />
<glyph unicode=" "  horiz-adv-x="512" />
<glyph unicode="&#x09;" horiz-adv-x="512" />
<glyph unicode="&#xa0;" horiz-adv-x="512" />
<glyph unicode="!" horiz-adv-x="512" d="M0 0v342h342v-342h-342zM0 682v854h342v-1024h-172v170h-170z" />
<glyph unicode="&#x22;" horiz-adv-x="682" d="M0 1366v340h170v-340h-170zM342 1366v340h170v-340h-170z" />
<glyph unicode="#" horiz-adv-x="1364" d="M0 342v170h170v512h-170v170h170v342h342v-342h170v342h342v-342h170v-170h-170v-512h170v-170h-170v-342h-342v342h-170v-342h-342v342h-170zM512 512h170v512h-170v-512z" />
<glyph unicode="$" d="M0 170v342h342v-342h170v512h-342v172h-170v512h170v170h342v170h170v-170h172v-170h170v-172h-170v172h-172v-512h172v-172h170v-512h-170v-170h-172v-170h-170v170h-342v170h-170zM342 854h170v512h-170v-512zM682 170h172v512h-172v-512z" />
<glyph unicode="%" d="M0 0v170h170v342h172v170h170v342h170v170h342v-170h-170v-342h-172v-170h-170v-342h-170v-170h-342zM0 854v340h342v-340h-342zM682 0v342h342v-342h-342z" />
<glyph unicode="&#x26;" horiz-adv-x="1364" d="M0 170v512h170v172h172v170h-172v340h170v172h514v-170h-512v-172h170v-170h170v-170h172v170h340v-170h-170v-172h-170v-170h170v-342h170v-170h-340v170h-172v-170h-512v170h-170zM342 170h340v342h-170v170h-170v-512z" />
<glyph unicode="'" horiz-adv-x="340" d="M0 1366v340h170v-340h-170z" />
<glyph unicode="(" horiz-adv-x="682" d="M0 342v852h170v342h172v170h170v-170h-170v-1366h170v-170h-170v170h-172v172h-170z" />
<glyph unicode=")" horiz-adv-x="682" d="M0 0v170h170v1366h-170v170h170v-170h172v-170h170v-854h-170v-342h-172v-170h-170z" />
<glyph unicode="*" horiz-adv-x="682" d="M0 1194v172h170v170h-170v170h170v-170h172v170h170v-170h-170v-170h170v-172h-170v172h-172v-172h-170z" />
<glyph unicode="+" horiz-adv-x="1024" d="M0 512v170h342v342h170v-342h342v-170h-342v-342h-170v342h-342z" />
<glyph unicode="," horiz-adv-x="512" d="M0 0h170v170h-170v172h342v-342h-172v-170h-170v170z" />
<glyph unicode="-" horiz-adv-x="852" d="M0 512v170h682v-170h-682z" />
<glyph unicode="." horiz-adv-x="512" d="M0 0v342h342v-342h-342z" />
<glyph unicode="/" d="M0 0v342h170v340h172v172h170v340h170v342h342v-342h-170v-340h-172v-172h-170v-340h-170v-342h-342z" />
<glyph unicode="0" horiz-adv-x="1364" d="M0 342v512h170v170h172v170h512v-170h170v-170h170v-512h-170v-172h-170v-170h-512v170h-172v172h-170zM342 342h170v-172h170v172h172v512h-172v170h-170v-170h-170v-512z" />
<glyph unicode="1" horiz-adv-x="852" d="M0 0v170h170v684h-170v170h170v170h342v-1024h170v-170h-682z" />
<glyph unicode="2" horiz-adv-x="1024" d="M0 0v342h170v170h172v170h170v342h-342v-170h-170v170h170v170h512v-170h172v-342h-172v-170h-170v-170h-170v-172h340v172h172v-342h-854z" />
<glyph unicode="3" horiz-adv-x="1024" d="M0 0h170v-170h342v512h-342v170h172v170h170v342h-342v-170h-170v170h170v170h512v-170h172v-342h-172v-340h172v-512h-172v-172h-512v172h-170v170z" />
<glyph unicode="4" d="M0 342v682h170v170h172v172h170v170h342v-342h-342v-170h-170v-512h170v342h342v-342h170v-170h-170v-342h-342v342h-512z" />
<glyph unicode="5" horiz-adv-x="1024" d="M0 0h170v-170h342v682h-512v682h854v-170h-512v-342h340v-170h172v-682h-172v-172h-512v172h-170v170z" />
<glyph unicode="6" d="M0 170v854h170v170h172v172h170v170h342v-170h-172v-172h-170v-170h342v-170h170v-684h-170v-170h-684v170h-170zM342 170h340v684h-340v-684z" />
<glyph unicode="7" d="M0 854v340h1024v-512h-170v-170h-172v-342h-170v-512h-342v512h172v342h170v170h170v342h-512v-170h-170z" />
<glyph unicode="8" d="M0 170v512h170v172h-170v512h170v170h684v-170h170v-512h-170v-172h170v-512h-170v-170h-684v170h-170zM342 170h340v512h-340v-512zM342 854h340v512h-340v-512z" />
<glyph unicode="9" d="M0 342v682h170v170h684v-170h170v-1024h-170v-170h-172v-172h-512v172h342v170h170v170h-512v172h-170zM342 342h340v682h-340v-682z" />
<glyph unicode=":" horiz-adv-x="512" d="M0 0v342h342v-342h-342zM0 682v342h342v-342h-342z" />
<glyph unicode=";" horiz-adv-x="512" d="M0 0v170h342v-340h-172v-172h-170v172h170v170h-170zM0 342v340h342v-340h-342z" />
<glyph unicode="&#x3c;" horiz-adv-x="1024" d="M0 512v170h170v172h172v170h170v170h342v-170h-172v-170h-170v-172h-170v-170h170v-170h170v-172h172v-170h-342v170h-170v172h-172v170h-170z" />
<glyph unicode="=" horiz-adv-x="1024" d="M0 342v170h854v-170h-854zM0 682v172h854v-172h-854z" />
<glyph unicode="&#x3e;" horiz-adv-x="1024" d="M0 0v170h170v172h172v170h170v170h-170v172h-172v170h-170v170h342v-170h170v-170h170v-172h172v-170h-172v-170h-170v-172h-170v-170h-342z" />
<glyph unicode="?" horiz-adv-x="1024" d="M0 1194v342h682v-170h172v-342h-172v-170h-170v-342h-342v342h172v170h170v342h-342v-172h-170zM170 0v342h342v-342h-342z" />
<glyph unicode="@" horiz-adv-x="1364" d="M0 342v512h170v170h172v170h682v-170h170v-512h-170v-170h-512v170h-170v170h170v172h342v-342h170v512h-682v-170h-172v-512h172v-172h682v-170h-682v170h-172v172h-170zM512 512h170v170h-170v-170z" />
<glyph unicode="A" horiz-adv-x="1364" d="M0 0v854h170v340h172v172h170v170h342v-170h170v-342h170v-1024h-340v512h-512v-512h-342zM342 682h512v342h-172v342h-170v-172h-170v-512z" />
<glyph unicode="B" d="M0 0v1536h854v-170h170v-512h-170v-172h170v-512h-170v-170h-854zM342 170h340v512h-340v-512zM342 854h170v170h170v342h-340v-512z" />
<glyph unicode="C" d="M0 170v1196h170v170h684v-170h170v-172h-342v172h-340v-1196h340v172h342v-172h-170v-170h-684v170h-170z" />
<glyph unicode="D" d="M0 0v1536h854v-170h170v-1024h-170v-172h-172v-170h-682zM342 170h170v172h170v1024h-340v-1196z" />
<glyph unicode="E" horiz-adv-x="1024" d="M0 0v1536h854v-342h-172v172h-340v-512h340v-172h-340v-512h512v-170h-854z" />
<glyph unicode="F" horiz-adv-x="1024" d="M0 0v1536h854v-342h-172v172h-340v-512h340v-172h-340v-682h-342z" />
<glyph unicode="G" d="M0 170v1196h170v170h684v-170h170v-172h-342v172h-340v-1196h340v512h-170v172h512v-854h-854v170h-170z" />
<glyph unicode="H" horiz-adv-x="1364" d="M0 0v1536h342v-682h512v682h340v-1536h-340v682h-512v-682h-342z" />
<glyph unicode="I" horiz-adv-x="852" d="M0 0v170h170v1196h-170v170h682v-170h-170v-1196h170v-170h-682z" />
<glyph unicode="J" d="M0 170v172h342v-172h340v1196h-340v-172h-172v342h854v-1366h-170v-170h-684v170h-170z" />
<glyph unicode="K" d="M0 0v1536h342v-512h170v170h170v172h172v170h170v-342h-170v-170h-172v-170h-170v-172h170v-170h172v-170h170v-342h-342v342h-170v340h-170v-682h-342z" />
<glyph unicode="L" horiz-adv-x="1024" d="M0 0v1536h342v-1366h340v172h172v-342h-854z" />
<glyph unicode="M" horiz-adv-x="1706" d="M0 0v512h170v854h-170v170h342v-170h170v-172h170v-340h172v340h170v172h170v170h342v-512h-170v-512h170v-512h-342v1024h-170v-342h-170v-170h-172v170h-170v342h-170v-1024h-342z" />
<glyph unicode="N" horiz-adv-x="1364" d="M0 0v1536h342v-342h170v-170h170v-170h172v682h340v-1536h-170v170h-170v342h-172v170h-170v172h-170v-854h-342z" />
<glyph unicode="O" horiz-adv-x="1364" d="M0 170v1024h170v172h172v170h682v-170h170v-1024h-170v-172h-170v-170h-684v170h-170zM342 342h170v-172h342v1024h-172v172h-340v-1024z" />
<glyph unicode="P" d="M0 0v1536h854v-170h170v-684h-170v-170h-512v-512h-342zM342 682h340v684h-340v-684z" />
<glyph unicode="Q" horiz-adv-x="1364" d="M0 170v1024h170v172h172v170h682v-170h170v-1024h-170v-172h-170v-170h340v-170h-682v170h-342v170h-170zM342 342h170v-172h342v1024h-172v172h-340v-1024z" />
<glyph unicode="R" d="M0 0v1536h854v-170h170v-512h-170v-172h-172v-170h172v-170h170v-342h-342v170h-170v342h-170v-512h-342zM342 854h340v512h-340v-512z" />
<glyph unicode="S" d="M0 170v172h342v-172h340v342h-170v170h-170v172h-172v170h-170v342h170v170h684v-170h170v-172h-342v172h-340v-172h170v-170h170v-170h172v-172h170v-512h-170v-170h-684v170h-170z" />
<glyph unicode="T" d="M0 1194v342h1024v-170h-342v-1366h-340v1366h-172v-172h-170z" />
<glyph unicode="U" d="M0 170v1366h342v-1366h340v1366h342v-1536h-170v170h-172v-170h-512v170h-170z" />
<glyph unicode="V" horiz-adv-x="1364" d="M0 854v682h342v-682h170v-512h170v340h172v854h340v-682h-170v-342h-170v-342h-172v-170h-170v170h-170v342h-172v342h-170z" />
<glyph unicode="W" horiz-adv-x="1706" d="M0 512v1024h342v-1024h170v342h170v340h172v-340h170v-342h170v854h-170v170h342v-170h170v-684h-170v-340h-172v-342h-340v512h-172v-170h-170v-342h-342v512h-170z" />
<glyph unicode="X" horiz-adv-x="1364" d="M0 0v342h170v170h172v342h-172v340h-170v342h342v-342h170v-340h170v170h172v512h340v-342h-170v-170h-170v-342h170v-340h170v-342h-340v342h-172v340h-170v-170h-170v-512h-342z" />
<glyph unicode="Y" d="M0 1024v512h342v-512h170v-170h170v682h342v-512h-170v-342h-172v-682h-340v682h-172v342h-170z" />
<glyph unicode="Z" horiz-adv-x="1024" d="M0 0v512h170v342h172v170h170v342h-342v-172h-170v342h854v-342h-172v-340h-170v-342h-170v-342h340v172h172v-342h-854z" />
<glyph unicode="[" horiz-adv-x="682" d="M0 -342v2048h512v-170h-170v-1706h170v-172h-512z" />
<glyph unicode="\" horiz-adv-x="852" d="M0 1024v512h170v-342h172v-340h170v-342h170v-512h-170v342h-170v340h-172v342h-170z" />
<glyph unicode="]" horiz-adv-x="682" d="M0 -170h170v1706h-170v170h512v-2048h-512v172z" />
<glyph unicode="^" horiz-adv-x="1876" d="M0 342v682h170v170h342v-170h170v170h172v172h-172v170h-340v-170h-342v170h170v170h512v-170h512v-170h342v170h170v-170h-170v-172h-342v172h-170v-172h-170v-170h512v-170h170v-512h-170v-172h-342v-170h-170v-170h-172v-172h-340v342h-172v342h-170zM512 -170h170 v682h172v342h-342v-1024z" />
<glyph unicode="_" horiz-adv-x="1024" d="M0 0h854v-170h-854v170z" />
<glyph unicode="a" d="M0 170v342h170v170h512v342h-340v-170h-172v170h172v170h512v-170h170v-1024h-170v170h-172v-170h-512v170h-170zM342 170h170v172h170v170h-340v-342z" />
<glyph unicode="b" d="M0 170v1366h170v170h172v-682h170v170h342v-170h170v-854h-170v-170h-684v170h-170zM342 170h340v854h-170v-170h-170v-684z" />
<glyph unicode="c" horiz-adv-x="1024" d="M0 170v854h170v170h512v-170h172v-170h-172v170h-340v-854h340v172h172v-172h-172v-170h-512v170h-170z" />
<glyph unicode="d" d="M0 170v854h170v170h512v342h172v170h170v-1706h-854v170h-170zM342 170h340v854h-340v-854z" />
<glyph unicode="e" d="M0 170v854h170v170h684v-170h170v-512h-682v-342h512v172h170v-172h-170v-170h-684v170h-170zM342 682h340v342h-340v-342z" />
<glyph unicode="f" horiz-adv-x="852" d="M0 1024v170h170v342h172v170h340v-170h-170v-342h170v-170h-170v-1024h-342v1024h-170z" />
<glyph unicode="g" d="M0 0h170v-170h512v340h-682v342h170v170h-170v342h170v170h854v-512h-170v-170h-512v-170h512v-172h170v-340h-170v-172h-684v172h-170v170zM342 682h340v342h-340v-342z" />
<glyph unicode="h" d="M0 0v1536h170v170h172v-512h512v-170h170v-1024h-342v1024h-340v-1024h-342z" />
<glyph unicode="i" horiz-adv-x="512" d="M0 0v1024h170v170h172v-1194h-342zM0 1536v170h342v-170h-342z" />
<glyph unicode="j" horiz-adv-x="512" d="M-342 -170h342v1194h170v170h172v-1364h-172v-172h-512v172zM0 1536v170h342v-170h-342z" />
<glyph unicode="k" d="M0 0v1536h170v170h172v-852h170v170h170v170h342v-170h-170v-170h-172v-172h-170v-170h342v-170h170v-342h-342v170h-170v172h-170v-342h-342z" />
<glyph unicode="l" horiz-adv-x="512" d="M0 0v1536h170v170h172v-1706h-342z" />
<glyph unicode="m" horiz-adv-x="1536" d="M0 0v1194h170v-170h172v170h340v-170h172v170h340v-170h172v-1024h-342v1024h-170v-1024h-342v1024h-170v-1024h-342z" />
<glyph unicode="n" d="M0 0v1194h170v-170h172v170h512v-170h170v-1024h-342v1024h-340v-1024h-342z" />
<glyph unicode="o" d="M0 170v854h170v170h684v-170h170v-854h-170v-170h-684v170h-170zM342 170h340v854h-340v-854z" />
<glyph unicode="p" d="M0 -342v1536h170v-170h172v170h512v-170h170v-682h-170v-172h-512v-512h-342zM342 342h340v682h-340v-682z" />
<glyph unicode="q" d="M0 170v854h170v170h854v-1536h-342v512h-170v-170h-342v170h-170zM342 170h170v172h170v682h-340v-854z" />
<glyph unicode="r" horiz-adv-x="852" d="M0 0v1194h170v-170h172v170h340v-340h-170v170h-170v-1024h-342z" />
<glyph unicode="s" d="M0 170v172h170v-172h512v172h-170v170h-342v170h-170v342h170v170h684v-170h-512v-170h170v-172h342v-170h170v-342h-170v-170h-684v170h-170z" />
<glyph unicode="t" horiz-adv-x="852" d="M0 1024v170h170v172h172v170h170v-342h170v-170h-170v-1024h-342v1024h-170z" />
<glyph unicode="u" d="M0 170v1024h342v-1024h340v1024h342v-1194h-170v170h-172v-170h-512v170h-170z" />
<glyph unicode="v" d="M0 342v852h342v-852h340v852h172v-170h170v-682h-170v-172h-172v-170h-340v170h-172v172h-170z" />
<glyph unicode="w" horiz-adv-x="1536" d="M0 170v1024h342v-852h170v852h342v-852h170v852h170v-170h172v-682h-172v-172h-170v-170h-342v170h-170v-170h-342v170h-170z" />
<glyph unicode="x" d="M0 0v342h170v170h172v170h-172v172h-170v340h342v-340h340v340h342v-170h-170v-342h-172v-170h172v-170h170v-342h-342v342h-170v170h-170v-512h-342z" />
<glyph unicode="y" d="M0 512v682h342v-682h170v-170h170v852h342v-852h-170v-342h-172v-170h-170v-172h-342v172h172v170h170v170h-170v172h-172v170h-170z" />
<glyph unicode="z" d="M0 0v342h170v170h172v170h170v172h170v170h-512v-170h-170v340h1024v-340h-170v-342h-172v-170h-170v-172h512v-170h-1024z" />
<glyph unicode="{" horiz-adv-x="852" d="M0 682v172h170v682h172v170h340v-170h-170v-682h-170v-172h170v-852h170v-172h-340v172h-172v852h-170z" />
<glyph unicode="|" horiz-adv-x="512" d="M0 -342v1878h342v-1878h-342z" />
<glyph unicode="}" horiz-adv-x="852" d="M0 -170h170v852h172v172h-172v682h-170v170h342v-170h170v-682h170v-172h-170v-852h-170v-172h-342v172z" />
<glyph unicode="~" horiz-adv-x="1024" d="M0 512v170h170v172h342v-172h170v172h172v-172h-172v-170h-340v170h-172v-170h-170z" />
<glyph unicode="&#xa1;" horiz-adv-x="512" d="M0 -342v854h170v170h172v-1024h-342zM0 854v340h342v-340h-342z" />
<glyph unicode="&#xa2;" horiz-adv-x="1024" d="M0 170v684h170v170h342v170h170v-170h172v-170h-172v-684h172v-170h-172v-170h-170v170h-342v170h-170zM342 170h170v684h-170v-684z" />
<glyph unicode="&#xa3;" d="M0 0v170h170v512h-170v172h170v512h172v170h340v-170h172v-172h-172v172h-340v-342h170v-170h170v-172h-170v-512h342v172h170v-172h-170v-170h-512v170h-172v-170h-170z" />
<glyph unicode="&#xa5;" d="M0 1194v342h342v-342h170v-170h170v512h342v-342h-170v-340h-172v-172h172v-170h-172v-512h-340v512h-172v170h172v172h-172v340h-170z" />
<glyph unicode="&#xa7;" d="M0 0v170h342v-170h340v342h-512v170h-170v342h170v170h-170v342h170v170h684v-170h170v-172h-342v172h-340v-342h512v-170h170v-342h-170v-170h170v-342h-170v-170h-684v170h-170zM342 512h340v342h-340v-342z" />
<glyph unicode="&#xa9;" horiz-adv-x="1364" d="M0 170v854h170v170h854v-170h170v-854h-170v-170h-854v170h-170zM170 170h854v854h-854v-854zM342 342v512h512v-172h-342v-170h342v-170h-512z" />
<glyph unicode="&#xaa;" horiz-adv-x="682" d="M0 682v172h512v-172h-512zM0 1024v342h170v170h342v-512h-512zM170 1194h172v172h-172v-172z" />
<glyph unicode="&#xab;" horiz-adv-x="1024" d="M0 512v170h170v172h172v170h170v-170h-170v-172h-172v-170h172v-170h170v-172h-170v172h-172v170h-170zM512 512v170h170v342h172v-342h-172v-170h172v-342h-172v342h-170z" />
<glyph unicode="&#xad;" horiz-adv-x="852" d="M0 512v170h682v-170h-682z" />
<glyph unicode="&#xae;" horiz-adv-x="1364" d="M0 170v854h170v170h854v-170h170v-854h-170v-170h-854v170h-170zM170 170h854v854h-854v-854zM342 342v512h512v-172h-342v-340h-170z" />
<glyph unicode="&#xb0;" horiz-adv-x="852" d="M0 1024v342h170v170h342v-170h170v-342h-170v-170h-342v170h-170zM170 1024h342v342h-342v-342z" />
<glyph unicode="&#xb1;" horiz-adv-x="1024" d="M0 170v172h854v-172h-854zM0 682v172h342v170h170v-170h342v-172h-342v-170h-170v170h-342z" />
<glyph unicode="&#xb2;" horiz-adv-x="682" d="M0 854v340h170v172h172v170h-342v170h342v-170h170v-170h-170v-172h-172v-170h342v-170h-512z" />
<glyph unicode="&#xb3;" horiz-adv-x="682" d="M0 854v170h342v170h-172v172h172v170h-342v170h342v-170h170v-170h-170v-172h170v-170h-170v-170h-342z" />
<glyph unicode="&#xb5;" horiz-adv-x="1364" d="M0 -342v684h170v512h172v340h170v-682h170v342h172v340h170v-852h170v-342h-340v512h-172v-512h-170v512h-170v-512h-172v-342h-170z" />
<glyph unicode="&#xb6;" d="M0 512v512h170v170h854v-170h-170v-1194h-172v-172h-512v172h512v1194h-170v-1024h-170v342h-172v170h-170z" />
<glyph unicode="&#xb7;" horiz-adv-x="512" d="M0 512v342h342v-342h-342z" />
<glyph unicode="&#xb9;" horiz-adv-x="682" d="M0 854v170h170v342h-170v170h170v170h172v-682h170v-170h-512z" />
<glyph unicode="&#xba;" horiz-adv-x="682" d="M0 682v172h512v-172h-512zM0 1024v512h512v-512h-512zM170 1194h172v172h-172v-172z" />
<glyph unicode="&#xbb;" horiz-adv-x="1024" d="M0 170v342h170v170h-170v342h170v-342h172v-170h-172v-342h-170zM342 170v172h170v170h170v170h-170v172h-170v170h170v-170h170v-172h172v-170h-172v-170h-170v-172h-170z" />
<glyph unicode="&#xbf;" horiz-adv-x="1024" d="M0 -170v340h170v172h172v340h340v-340h-170v-172h-170v-340h340v170h172v-342h-684v172h-170zM342 854v340h340v-340h-340z" />
<glyph unicode="&#xc0;" horiz-adv-x="1364" d="M0 0v682h170v342h172v170h170v342h-170v170h170v-170h170v-170h172v-172h170v-340h170v-854h-340v342h-512v-342h-342zM342 512h512v342h-172v340h-170v-170h-170v-512z" />
<glyph unicode="&#xc1;" horiz-adv-x="1364" d="M0 0v682h170v342h172v170h170v172h342v-172h170v-340h170v-854h-340v342h-512v-342h-342zM342 512h512v342h-172v340h-170v-170h-170v-512zM342 1366v170h170v170h170v-170h-170v-170h-170z" />
<glyph unicode="&#xc2;" horiz-adv-x="1364" d="M0 0v682h170v342h172v170h170v172h170v170h-170v-170h-170v170h170v170h170v-170h172v-342h170v-340h170v-854h-340v342h-512v-342h-342zM342 512h512v342h-172v340h-170v-170h-170v-512z" />
<glyph unicode="&#xc3;" horiz-adv-x="1364" d="M0 0v512h170v342h172v170h170v170h342v-170h170v-342h170v-682h-340v342h-512v-342h-342zM170 1366v170h172v170h340v-170h172v170h170v-170h-170v-170h-342v170h-170v-170h-172zM342 512h512v170h-172v342h-170v-170h-170v-342z" />
<glyph unicode="&#xc4;" horiz-adv-x="1364" d="M0 0v854h170v340h172v172h170v170h-170v170h170v-170h342v170h170v-170h-170v-170h170v-342h170v-1024h-340v512h-512v-512h-342zM342 682h512v342h-172v342h-170v-172h-170v-512z" />
<glyph unicode="&#xc5;" horiz-adv-x="1364" d="M0 0v512h170v342h172v170h170v170h-170v512h512v-682h170v-342h170v-682h-340v342h-512v-342h-342zM342 512h512v170h-172v342h-170v-170h-170v-342zM512 1366h170v170h-170v-170z" />
<glyph unicode="&#xc6;" horiz-adv-x="1536" d="M0 0v854h170v340h172v172h170v170h854v-170h-342v-512h342v-172h-342v-512h342v-170h-684v512h-340v-512h-342zM342 682h340v684h-170v-342h-170v-342z" />
<glyph unicode="&#xc7;" d="M0 170v1196h170v170h684v-170h170v-172h-342v172h-340v-1196h340v342h342v-342h-170v-170h-172v-170h-170v-172h-170v172h170v170h-342v170h-170z" />
<glyph unicode="&#xc8;" horiz-adv-x="1024" d="M0 0v1366h342v170h-172v170h172v-170h170v-170h342v-342h-172v170h-340v-340h340v-172h-340v-512h512v-170h-854z" />
<glyph unicode="&#xc9;" horiz-adv-x="1024" d="M0 0v1366h342v170h170v170h170v-170h-170v-170h342v-342h-172v170h-340v-340h340v-172h-340v-512h512v-170h-854z" />
<glyph unicode="&#xca;" horiz-adv-x="1024" d="M0 0v1366h170v170h172v170h170v-170h170v-170h172v-342h-172v170h-340v-340h340v-172h-340v-512h512v-170h-854zM342 1366h170v170h-170v-170z" />
<glyph unicode="&#xcb;" horiz-adv-x="1024" d="M0 0v1366h854v-342h-172v170h-340v-340h340v-172h-340v-512h512v-170h-854zM170 1536v170h172v-170h-172zM512 1536v170h170v-170h-170z" />
<glyph unicode="&#xcc;" horiz-adv-x="852" d="M0 0v170h170v1024h-170v172h342v170h-172v170h172v-170h170v-170h170v-172h-170v-1024h170v-170h-682z" />
<glyph unicode="&#xcd;" horiz-adv-x="852" d="M0 0v170h170v1024h-170v172h170v170h172v170h170v-170h-170v-170h340v-172h-170v-1024h170v-170h-682z" />
<glyph unicode="&#xce;" horiz-adv-x="852" d="M0 0v170h170v1024h-170v172h170v170h172v170h170v-170h170v-342h-170v-1024h170v-170h-682zM342 1366h170v170h-170v-170z" />
<glyph unicode="&#xcf;" horiz-adv-x="852" d="M0 0v170h170v1024h-170v172h682v-172h-170v-1024h170v-170h-682zM0 1536v170h170v-170h-170zM512 1536v170h170v-170h-170z" />
<glyph unicode="&#xd0;" horiz-adv-x="1364" d="M0 854v170h170v512h854v-170h170v-1024h-170v-172h-170v-170h-684v854h-170zM512 170h170v172h172v1024h-342v-342h170v-170h-170v-684z" />
<glyph unicode="&#xd1;" horiz-adv-x="1364" d="M0 0v1194h342v-170h170v-170h170v-172h172v684h-342v170h-170v-170h-172v170h172v170h340v-170h172v170h170v-170h-170v-170h340v-1366h-170v170h-170v172h-172v170h-170v170h-170v-682h-342z" />
<glyph unicode="&#xd2;" horiz-adv-x="1364" d="M0 170v854h170v170h172v172h170v170h-170v170h170v-170h170v-170h342v-172h170v-852h-170v-172h-170v-170h-684v170h-170zM342 342h170v-172h342v854h-172v170h-340v-852z" />
<glyph unicode="&#xd3;" horiz-adv-x="1364" d="M0 170v854h170v170h172v172h170v170h170v170h172v-170h-172v-170h342v-172h170v-852h-170v-172h-170v-170h-684v170h-170zM342 342h170v-172h342v854h-172v170h-340v-852z" />
<glyph unicode="&#xd4;" horiz-adv-x="1364" d="M0 170v854h170v170h172v342h170v170h170v-170h172v-170h170v-172h170v-852h-170v-172h-170v-170h-684v170h-170zM342 342h170v-172h342v854h-172v170h-340v-852zM512 1366h170v170h-170v-170z" />
<glyph unicode="&#xd5;" horiz-adv-x="1364" d="M0 170v684h170v170h172v170h682v-170h170v-682h-170v-172h-170v-170h-684v170h-170zM170 1366v170h172v170h340v-170h172v170h170v-170h-170v-170h-342v170h-170v-170h-172zM342 342h170v-172h342v684h-172v170h-340v-682z" />
<glyph unicode="&#xd6;" horiz-adv-x="1364" d="M0 170v854h170v170h172v172h682v-172h170v-852h-170v-172h-170v-170h-684v170h-170zM342 342h170v-172h342v854h-172v170h-340v-852zM342 1536v170h170v-170h-170zM682 1536v170h172v-170h-172z" />
<glyph unicode="&#xd7;" horiz-adv-x="1024" d="M0 170v172h170v170h172v170h-172v172h-170v170h170v-170h172v-172h170v172h170v170h172v-170h-172v-172h-170v-170h170v-170h172v-172h-172v172h-170v170h-170v-170h-172v-172h-170z" />
<glyph unicode="&#xd8;" horiz-adv-x="1364" d="M0 0v170h170v172h-170v1024h170v170h684v-170h170v170h170v-170h-170v-172h170v-1024h-170v-170h-682v170h-172v-170h-170zM342 170h340v172h172v512h-172v-172h-170v-170h-170v-342zM342 682h170v172h170v170h172v342h-342v-172h-170v-512z" />
<glyph unicode="&#xd9;" d="M0 170v1196h342v-1196h340v1196h342v-1366h-170v170h-172v-170h-512v170h-170zM342 1536v170h170v-170h170v-170h-170v170h-170z" />
<glyph unicode="&#xda;" d="M0 170v1196h342v-1196h340v1196h342v-1366h-170v170h-172v-170h-512v170h-170zM342 1366v170h170v170h170v-170h-170v-170h-170z" />
<glyph unicode="&#xdb;" d="M0 170v1196h342v170h170v170h170v-170h172v-170h170v-1366h-170v170h-172v-170h-512v170h-170zM342 170h340v1366h-170v-170h-170v-1196z" />
<glyph unicode="&#xdc;" d="M0 170v1196h342v-1196h340v1196h342v-1366h-170v170h-172v-170h-512v170h-170zM170 1536v170h172v-170h-172zM682 1536v170h172v-170h-172z" />
<glyph unicode="&#xdd;" d="M0 1024v342h170v-172h172v-170h170v-170h170v512h342v-342h-170v-342h-172v-682h-340v682h-172v342h-170zM342 1366v170h170v170h170v-170h-170v-170h-170z" />
<glyph unicode="&#xde;" horiz-adv-x="1364" d="M0 0v170h170v1196h-170v170h682v-170h-170v-172h512v-170h170v-512h-170v-170h-512v-172h170v-170h-682zM512 512h342v512h-342v-512z" />
<glyph unicode="&#xdf;" d="M0 -342v1708h170v170h172v170h512v-170h170v-512h-170v-170h170v-684h-170v-170h-342v170h170v684h-170v170h170v512h-340v-1878h-342z" />
<glyph unicode="&#xe0;" d="M0 170v342h170v170h512v342h-340v-170h-172v170h172v170h512v-170h170v-1024h-170v170h-172v-170h-512v170h-170zM342 170h170v172h170v170h-340v-342zM342 1536v170h170v-170h170v-170h-170v170h-170z" />
<glyph unicode="&#xe1;" d="M0 170v342h170v170h512v342h-340v-170h-172v170h172v170h512v-170h170v-1024h-170v170h-172v-170h-512v170h-170zM342 170h170v172h170v170h-340v-342zM512 1366v170h170v170h172v-170h-172v-170h-170z" />
<glyph unicode="&#xe2;" d="M0 170v342h170v170h512v342h-340v-170h-172v170h172v170h512v-170h170v-1024h-170v170h-172v-170h-512v170h-170zM342 170h170v172h170v170h-340v-342zM342 1366v170h170v170h170v-170h172v-170h-172v170h-170v-170h-170z" />
<glyph unicode="&#xe3;" d="M0 170v342h170v170h512v342h-340v-170h-172v170h172v170h512v-170h170v-1024h-170v170h-172v-170h-512v170h-170zM170 1366v170h172v170h340v-170h172v170h170v-170h-170v-170h-342v170h-170v-170h-172zM342 170h170v172h170v170h-340v-342z" />
<glyph unicode="&#xe4;" d="M0 170v342h170v170h512v342h-340v-170h-172v170h172v170h512v-170h170v-1024h-170v170h-172v-170h-512v170h-170zM342 170h170v172h170v170h-340v-342zM342 1366v170h170v-170h-170zM682 1366v170h172v-170h-172z" />
<glyph unicode="&#xe5;" d="M0 170v342h170v170h512v342h-340v-170h-172v170h172v512h512v-512h170v-1024h-170v170h-172v-170h-512v170h-170zM342 170h170v172h170v170h-340v-342zM512 1194h170v172h-170v-172z" />
<glyph unicode="&#xe6;" horiz-adv-x="1536" d="M0 170v342h170v170h342v342h-342v170h512v-170h172v170h340v-170h172v-512h-512v-342h340v172h172v-172h-172v-170h-340v170h-172v-170h-512v170h-170zM342 170h170v342h-170v-342zM854 682h170v342h-170v-342z" />
<glyph unicode="&#xe7;" horiz-adv-x="1024" d="M0 170v854h170v170h512v-170h172v-170h-172v170h-340v-854h340v172h172v-172h-172v-170h-170v-170h-170v170h-172v170h-170z" />
<glyph unicode="&#xe8;" d="M0 170v854h170v170h684v-170h170v-512h-682v-342h512v172h170v-172h-170v-170h-684v170h-170zM342 682h340v342h-340v-342zM342 1536v170h170v-170h170v-170h-170v170h-170z" />
<glyph unicode="&#xe9;" d="M0 170v854h170v170h684v-170h170v-512h-682v-342h512v172h170v-172h-170v-170h-684v170h-170zM342 682h340v342h-340v-342zM342 1366v170h170v170h170v-170h-170v-170h-170z" />
<glyph unicode="&#xea;" d="M0 170v854h170v170h684v-170h170v-512h-682v-342h512v172h170v-172h-170v-170h-684v170h-170zM342 682h340v342h-340v-342zM342 1366v170h170v170h170v-170h172v-170h-172v170h-170v-170h-170z" />
<glyph unicode="&#xeb;" d="M0 170v854h170v170h684v-170h170v-512h-682v-342h512v172h170v-172h-170v-170h-684v170h-170zM170 1366v170h172v-170h-172zM342 682h340v342h-340v-342zM682 1366v170h172v-170h-172z" />
<glyph unicode="&#xec;" horiz-adv-x="512" d="M0 0v1024h170v170h172v-1194h-342zM0 1536v170h170v-170h172v-170h-172v170h-170z" />
<glyph unicode="&#xed;" horiz-adv-x="512" d="M0 0v1024h170v170h172v-1194h-342zM0 1366v170h170v170h172v-170h-172v-170h-170z" />
<glyph unicode="&#xee;" horiz-adv-x="682" d="M0 0v1024h170v170h172v-1194h-342zM0 1366v170h170v170h172v-170h170v-170h-170v170h-172v-170h-170z" />
<glyph unicode="&#xef;" horiz-adv-x="512" d="M0 0v512v512h170v170h172v-1194h-172h-170zM0 1366v170h170v-170h-170zM342 1366v170h170v-170h-170z" />
<glyph unicode="&#xf0;" d="M0 170v512h170v172h342v340h-170v-170h-172v170h172v172h-172v170h342v-170h170v170h172v-170h-172v-172h172v-340h170v-684h-170v-170h-684v170h-170zM342 170h340v512h-340v-512z" />
<glyph unicode="&#xf1;" d="M0 0v1194h170v-170h172v170h512v-170h170v-1024h-342v1024h-340v-1024h-342zM170 1366v170h172v170h340v-170h172v170h170v-170h-170v-170h-342v170h-170v-170h-172z" />
<glyph unicode="&#xf2;" d="M0 170v854h170v170h684v-170h170v-854h-170v-170h-684v170h-170zM342 170h340v854h-340v-854zM342 1536v170h170v-170h170v-170h-170v170h-170z" />
<glyph unicode="&#xf3;" d="M0 170v854h170v170h684v-170h170v-854h-170v-170h-684v170h-170zM342 170h340v854h-340v-854zM342 1366v170h170v170h170v-170h-170v-170h-170z" />
<glyph unicode="&#xf4;" d="M0 170v854h170v170h684v-170h170v-854h-170v-170h-684v170h-170zM342 170h340v854h-340v-854zM342 1366v170h170v170h170v-170h172v-170h-172v170h-170v-170h-170z" />
<glyph unicode="&#xf5;" d="M0 170v854h170v170h684v-170h170v-854h-170v-170h-684v170h-170zM170 1366v170h172v170h340v-170h172v170h170v-170h-170v-170h-342v170h-170v-170h-172zM342 170h340v854h-340v-854z" />
<glyph unicode="&#xf6;" d="M0 170v854h170v170h684v-170h170v-854h-170v-170h-684v170h-170zM170 1366v170h172v-170h-172zM342 170h340v854h-340v-854zM682 1366v170h172v-170h-172z" />
<glyph unicode="&#xf7;" horiz-adv-x="1024" d="M0 512v170h854v-170h-854zM342 170v172h170v-172h-170zM342 854v170h170v-170h-170z" />
<glyph unicode="&#xf8;" horiz-adv-x="1364" d="M0 0v170h170v172h-170v682h170v170h684v-170h170v170h170v-170h-170v-170h170v-684h-170v-170h-682v170h-172v-170h-170zM342 170h512v512h-172v172h172v170h-512v-512h170v-170h-170v-172zM512 512v170h170v-170h-170z" />
<glyph unicode="&#xf9;" d="M0 170v1024h342v-1024h340v1024h342v-1194h-170v170h-172v-170h-512v170h-170zM342 1536v170h170v-170h170v-170h-170v170h-170z" />
<glyph unicode="&#xfa;" d="M0 170v1024h342v-1024h340v1024h342v-1194h-170v170h-172v-170h-512v170h-170zM342 1366v170h170v170h170v-170h-170v-170h-170z" />
<glyph unicode="&#xfb;" d="M0 170v1024h342v-1024h340v1024h342v-1194h-170v170h-172v-170h-512v170h-170zM342 1366v170h170v170h170v-170h172v-170h-172v170h-170v-170h-170z" />
<glyph unicode="&#xfc;" d="M0 170v1024h342v-1024h340v1024h342v-1194h-170v170h-172v-170h-512v170h-170zM170 1366v170h172v-170h-172zM682 1366v170h172v-170h-172z" />
<glyph unicode="&#xfd;" d="M0 512v682h342v-682h170v-170h170v852h342v-852h-170v-342h-172v-170h-170v-172h-342v172h172v170h170v170h-170v172h-172v170h-170zM342 1366v170h170v170h170v-170h-170v-170h-170z" />
<glyph unicode="&#xfe;" horiz-adv-x="1024" d="M0 -342v1878h170v170h172v-512h340v-170h172v-342v-340h-172v-172h-340v-170v-342h-342zM342 342h170v340v342h-170v-342v-340z" />
<glyph unicode="&#xff;" d="M0 512v682h342v-682h170v-170h170v852h342v-852h-170v-342h-172v-170h-170v-172h-342v172h172v170h170v170h-170v172h-172v170h-170zM170 1366v170h172v-170h-172zM682 1366v170h172v-170h-172z" />
<glyph unicode="&#x152;" horiz-adv-x="1536" d="M0 170v1024h170v172h172v170h1024v-170h-512v-172h170v-340h342v-172h-342v-512h342v-170h-1196v170h-170zM342 342h170v-172h170v1024h-170v172h-170v-1024z" />
<glyph unicode="&#x153;" horiz-adv-x="1536" d="M0 170v854h170v170h512v-170h172v170h340v-170h172v-512h-512v-342h340v172h172v-172h-172v-170h-340v170h-172v-170h-512v170h-170zM342 170h170v854h-170v-854zM854 682h170v342h-170v-342z" />
<glyph unicode="&#x178;" d="M0 1024v342h342v-342h170v-170h170v512h342v-342h-170v-342h-172v-682h-340v682h-172v342h-170zM170 1536v170h172v-170h-172zM682 1536v170h172v-170h-172z" />
<glyph unicode="&#x2000;" horiz-adv-x="853" />
<glyph unicode="&#x2001;" horiz-adv-x="1706" />
<glyph unicode="&#x2002;" horiz-adv-x="853" />
<glyph unicode="&#x2003;" horiz-adv-x="1706" />
<glyph unicode="&#x2004;" horiz-adv-x="568" />
<glyph unicode="&#x2005;" horiz-adv-x="426" />
<glyph unicode="&#x2006;" horiz-adv-x="284" />
<glyph unicode="&#x2007;" horiz-adv-x="284" />
<glyph unicode="&#x2008;" horiz-adv-x="213" />
<glyph unicode="&#x2009;" horiz-adv-x="341" />
<glyph unicode="&#x200a;" horiz-adv-x="94" />
<glyph unicode="&#x2010;" horiz-adv-x="852" d="M0 512v170h682v-170h-682z" />
<glyph unicode="&#x2011;" horiz-adv-x="852" d="M0 512v170h682v-170h-682z" />
<glyph unicode="&#x2012;" horiz-adv-x="852" d="M0 512v170h682v-170h-682z" />
<glyph unicode="&#x2013;" d="M0 512v170h1024v-170h-1024z" />
<glyph unicode="&#x2014;" horiz-adv-x="2218" d="M0 512v170h2048v-170h-2048z" />
<glyph unicode="&#x202f;" horiz-adv-x="341" />
<glyph unicode="&#x205f;" horiz-adv-x="426" />
<glyph unicode="&#x20ac;" d="M0 512v170h170v172h-170v170h170v342h172v170h512v-170h170v-172h-170v172h-342v-342h342v-170h-342v-172h342v-170h-342v-342h342v172h170v-172h-170v-170h-512v170h-172v342h-170z" />
<glyph unicode="&#x25fc;" horiz-adv-x="1190" d="M0 0v1190h1190v-1190h-1190z" />
</font>
</defs>
</svg>
